<svg height="457.14286pt" viewBox="0 0 457.14286 457.14286" width="457.14286pt" xmlns="http://www.w3.org/2000/svg"><path d="m228.570312 0c-126.035156 0-228.570312 102.535156-228.570312 228.570312 0 126.035157 102.535156 228.574219 228.570312 228.574219 126.035157 0 228.574219-102.539062 228.574219-228.574219 0-126.035156-102.539062-228.570312-228.574219-228.570312zm0 438.855469c-115.953124 0-210.285156-94.328125-210.285156-210.285157 0-115.953124 94.332032-210.285156 210.285156-210.285156 115.957032 0 210.285157 94.332032 210.285157 210.285156 0 115.957032-94.328125 210.285157-210.285157 210.285157zm0 0"/><path d="m237.714844 65.589844c0-5.054688-4.089844-9.144532-9.144532-9.144532-94.910156 0-172.125 77.214844-172.125 172.125 0 5.054688 4.089844 9.144532 9.144532 9.144532 5.054687 0 9.140625-4.089844 9.140625-9.144532 0-84.828124 69.011719-153.839843 153.839843-153.839843 5.054688 0 9.144532-4.085938 9.144532-9.140625zm0 0"/><path d="m228.570312 180.625c-26.4375 0-47.945312 21.507812-47.945312 47.945312s21.507812 47.949219 47.945312 47.949219 47.949219-21.511719 47.949219-47.949219-21.511719-47.945312-47.949219-47.945312zm0 77.605469c-16.355468 0-29.660156-13.300781-29.660156-29.660157 0-16.355468 13.304688-29.660156 29.660156-29.660156 16.359376 0 29.660157 13.304688 29.660157 29.660156 0 16.359376-13.300781 29.660157-29.660157 29.660157zm0 0"/></svg>