<svg height="486pt" viewBox="0 -9 486.26344 486" width="486pt" xmlns="http://www.w3.org/2000/svg"><path d="m384.882812 325.605469-18.898437 18.164062-30.917969-29.710937c32.53125-33.367188 52.488282-78.210938 52.488282-127.464844 0-102.816406-86.929688-186.460938-193.777344-186.460938s-193.777344 83.644532-193.777344 186.460938 86.933594 186.464844 193.777344 186.464844c48.972656.167968 96.253906-17.894532 132.644531-50.667969l30.898437 29.699219-18.769531 18.042968c-1.175781 1.128907-1.84375 2.691407-1.84375 4.324219 0 1.632813.667969 3.195313 1.84375 4.328125l81.671875 78.484375c15.320313 14.472657 39.273438 14.460938 54.578125-.027343.503907-.476563.992188-.96875 1.472657-1.472657 13.863281-14.683593 13.21875-37.820312-1.441407-51.707031l-81.636719-78.457031c-2.320312-2.230469-5.988281-2.230469-8.3125 0zm-191.105468 35.453125c-100.230469 0-181.777344-78.265625-181.777344-174.464844s81.546875-174.460938 181.777344-174.460938c100.230468 0 181.777344 78.261719 181.777344 174.460938s-81.546876 174.464844-181.777344 174.464844zm280.480468 68.875c.203126 6.523437-2.210937 12.863281-6.710937 17.597656-.320313.339844-.652344.671875-1.023437 1.023438-10.660157 10.085937-27.339844 10.101562-38.019532.03125l-77.136718-74.125 37.671874-36.207032 77.515626 74.5c4.757812 4.46875 7.53125 10.652344 7.703124 17.179688zm0 0"/><path d="m304.882812 87.132812-90.28125-16.949218c-1.753906-.332032-3.566406.136718-4.941406 1.277344-1.371094 1.140624-2.167968 2.835937-2.167968 4.621093v68.039063.226562 96.535156c-8.605469-7.433593-19.636719-11.46875-31.011719-11.335937-23.714844 0-43.011719 16.5-43.011719 36.785156 0 20.289063 19.300781 36.789063 43.011719 36.789063 23.714843 0 43.011719-16.5 43.011719-36.789063v-114.878906l83.179687 15.613281c1.753906.332032 3.5625-.136718 4.9375-1.277344 1.375-1.140624 2.167969-2.835937 2.167969-4.621093v-68.140625c0-2.886719-2.058594-5.363282-4.894532-5.894532zm-128.398437 203.984376c-17.101563 0-31.011719-11.121094-31.011719-24.785157 0-13.667969 13.910156-24.789062 31.011719-24.789062s31.011719 11.121093 31.011719 24.789062c0 13.664063-13.914063 24.78125-31.015625 24.78125zm121.300781-137.175782-78.285156-14.699218v-55.933594l78.285156 14.699218zm0 0"/><path d="m83.777344 103.175781h79.90625c3.3125 0 6-2.683593 6-6 0-3.3125-2.6875-6-6-6h-79.902344c-3.3125 0-6 2.6875-6 6 0 3.316407 2.6875 6 6 6zm0 0"/><path d="m83.777344 144.6875h79.90625c3.3125 0 6-2.6875 6-6 0-3.316406-2.6875-6-6-6h-79.902344c-3.3125 0-6 2.683594-6 6 0 3.3125 2.6875 6 6 6zm0 0"/><path d="m169.683594 180.195312c0-3.3125-2.6875-6-6-6h-79.902344c-3.3125 0-6 2.6875-6 6s2.6875 6 6 6h79.90625c3.3125-.003906 5.996094-2.6875 5.996094-6zm0 0"/></svg>